<?xml version="1.0" encoding="UTF-8"?>
<svg width="109px" height="24px" viewBox="0 0 109 24" version="1.1" xmlns="http://www.w3.org/2000/svg" xmlns:xlink="http://www.w3.org/1999/xlink">
    <title>编组</title>
    <defs>
        <polygon id="path-1" points="0 0 24 0 24 24 0 24"></polygon>
    </defs>
    <g id="PC" stroke="none" stroke-width="1" fill="none" fill-rule="evenodd">
        <g id="热榜" transform="translate(-24, -18)">
            <g id="搜索" transform="translate(24, 13)">
                <g id="编组-3" transform="translate(0, 4)">
                    <g id="编组" transform="translate(0, 1)">
                        <g>
                            <mask id="mask-2" fill="white">
                                <use xlink:href="#path-1"></use>
                            </mask>
                            <g id="Clip-2"></g>
                            <path d="M24,12 C24,5.37253388 18.6274202,-4.58724364e-05 11.9999541,-4.58724364e-05 C5.37257975,-4.58724364e-05 0,5.37253388 0,12 C0,18.6274661 5.37257975,24.0000459 11.9999541,24.0000459 C18.6274202,24.0000459 24,18.6274661 24,12" id="Fill-1" fill="#3F80F7" fill-rule="nonzero" mask="url(#mask-2)"></path>
                        </g>
                        <g id="编组-12" transform="translate(6, 5)" fill="#FEFEFE">
                            <rect id="矩形" x="2.18720914" y="7.64910434" width="2.59462377" height="1.2" rx="0.6"></rect>
                            <rect id="矩形备份-4" x="2.18720914" y="5.05448057" width="4.32437295" height="1.2" rx="0.6"></rect>
                            <rect id="矩形备份-5" x="2.18720914" y="2.4598568" width="6.91899671" height="1.2" rx="0.6"></rect>
                            <path d="M12.5330896,6.68686999 L11.6128137,5.7665941 C11.2555899,5.40937026 10.6709552,5.40937026 10.313652,5.7665941 L9.77234129,6.30790485 L11.9917789,8.52734242 L12.5330896,7.98603167 C12.8903928,7.62872848 12.8903928,7.04417317 12.5330896,6.68686999" id="Fill-7"></path>
                            <path d="M4.73225573,13.4095417 C4.72146443,13.500871 4.79882854,13.5782351 4.89015787,13.5674438 L5.6549914,13.4769873 L4.82271223,12.6447082 L4.73225573,13.4095417 Z" id="Fill-9"></path>
                            <path d="M5.44309308,10.6397081 C5.16037683,10.9352786 4.98009861,11.3143231 4.93193449,11.7212187 L4.85996603,12.3300544 L5.96964514,13.4398129 L6.57848088,13.3677651 C6.98537645,13.319601 7.36442093,13.1393227 7.65999152,12.8566065 L5.44309308,10.6397081 Z" id="Fill-11"></path>
                            <polygon id="Fill-13" points="5.76664171 10.3136838 7.98599993 12.533042 11.6670241 8.85209714 9.44758657 6.63273891"></polygon>
                            <path d="M4.44998383,12.587181 L2.28966038,12.587181 C1.5682301,12.587181 0.981294356,12.0002453 0.981294356,11.278815 L0.981294356,2.28966038 C0.981294356,1.5682301 1.5682301,0.981294356 2.28966038,0.981294356 L8.952972,0.981294356 C9.67440229,0.981294356 10.261338,1.5682301 10.261338,2.28966038 L10.261338,5.32796734 C10.4684358,5.19418694 10.7099705,5.12182173 10.9632488,5.12182173 C11.0585455,5.12182173 11.1518585,5.13285108 11.2426324,5.15268803 L11.2426324,2.28966038 C11.2426324,1.02707804 10.2155543,0 8.952972,0 L2.28966038,0 C1.02707804,0 0,1.02707804 0,2.28966038 L0,11.278815 C0,12.541318 1.02707804,13.5684754 2.28966038,13.5684754 L4.37484146,13.5684754 C4.35619472,13.5030928 4.3498469,13.4341395 4.35801972,13.3651863 L4.44998383,12.587181 Z" id="Fill-15"></path>
                            <path d="M10.2613618,11.2787991 C10.2613618,12.0002294 9.67442609,12.5871651 8.95299581,12.5871651 L8.46500678,12.5871651 L8.19427206,12.8578999 L8.19903293,12.8625814 L7.92052212,13.128952 C7.72667542,13.3144672 7.49989938,13.4620541 7.25542878,13.5684595 L8.95299581,13.5684595 C10.2154988,13.5684595 11.2426562,12.5413815 11.2426562,11.2787991 L11.2426562,9.80943639 L10.2613618,10.7907307 L10.2613618,11.2787991 Z" id="Fill-17"></path>
                        </g>
                        <g id="AveScript.ai" transform="translate(28, 5)" fill="#FFFFFF" fill-rule="nonzero">
                            <path d="M5.796,0.308 L9.94,10.556 L7.784,10.556 L6.888,8.218 L2.898,8.218 L2.03,10.556 L0,10.556 L4.018,0.308 L5.796,0.308 Z M6.23,6.482 L4.858,2.884 L3.528,6.482 L6.23,6.482 Z" id="形状"></path>
                            <polygon id="路径" points="12.25 3.304 14.126 8.092 15.876 3.304 17.906 3.304 14.84 10.542 13.258 10.542 10.094 3.304"></polygon>
                            <path d="M22.092,3.122 C22.736,3.122 23.3076667,3.26433333 23.807,3.549 C24.3063333,3.83366667 24.6936667,4.235 24.969,4.753 C25.2443333,5.271 25.382,5.866 25.382,6.538 C25.382,6.83666667 25.354,7.14 25.298,7.448 L20.482,7.448 C20.566,7.98933333 20.762,8.39766667 21.07,8.673 C21.378,8.94833333 21.7606667,9.086 22.218,9.086 C22.5446667,9.086 22.8363333,9.01366667 23.093,8.869 C23.3496667,8.72433333 23.548,8.50733333 23.688,8.218 L25.116,9.058 C24.92,9.59 24.5443333,10.0006667 23.989,10.29 C23.4336667,10.5793333 22.8153333,10.724 22.134,10.724 C21.4806667,10.724 20.874,10.5793333 20.314,10.29 C19.754,10.0006667 19.3036667,9.56666667 18.963,8.988 C18.6223333,8.40933333 18.452,7.714 18.452,6.902 C18.452,6.09933333 18.6223333,5.41333333 18.963,4.844 C19.3036667,4.27466667 19.7493333,3.84533333 20.3,3.556 C20.8506667,3.26666667 21.448,3.122 22.092,3.122 Z M22.036,4.704 C21.6533333,4.704 21.3266667,4.82533333 21.056,5.068 C20.7853333,5.31066667 20.6033333,5.65133333 20.51,6.09 L23.394,6.09 C23.3566667,5.642 23.2143333,5.299 22.967,5.061 C22.7196667,4.823 22.4093333,4.704 22.036,4.704 Z" id="形状"></path>
                            <path d="M33.754,7.588 C33.754,8.288 33.5743333,8.87366667 33.215,9.345 C32.8556667,9.81633333 32.389,10.164 31.815,10.388 C31.241,10.612 30.6273333,10.724 29.974,10.724 C29.022,10.724 28.1633333,10.5023333 27.398,10.059 C26.6326667,9.61566667 26.124,8.988 25.872,8.176 L27.524,7.238 C27.748,7.76066667 28.0746667,8.16666667 28.504,8.456 C28.9333333,8.74533333 29.4466667,8.89 30.044,8.89 C30.5293333,8.89 30.9143333,8.792 31.199,8.596 C31.4836667,8.4 31.626,8.11533333 31.626,7.742 C31.626,7.44333333 31.5303333,7.196 31.339,7 C31.1476667,6.804 30.9096667,6.65 30.625,6.538 C30.3403333,6.426 29.9506667,6.29533333 29.456,6.146 C28.7933333,5.95 28.252,5.75633333 27.832,5.565 C27.412,5.37366667 27.0526667,5.08666667 26.754,4.704 C26.4553333,4.32133333 26.306,3.81733333 26.306,3.192 C26.306,2.52933333 26.481,1.967 26.831,1.505 C27.181,1.043 27.643,0.697666667 28.217,0.469 C28.791,0.240333333 29.4093333,0.126 30.072,0.126 C30.9773333,0.126 31.752,0.331333333 32.396,0.742 C33.04,1.15266667 33.4553333,1.708 33.642,2.408 L31.99,3.346 C31.822,2.90733333 31.57,2.56433333 31.234,2.317 C30.898,2.06966667 30.478,1.946 29.974,1.946 C29.5166667,1.946 29.1456667,2.051 28.861,2.261 C28.5763333,2.471 28.434,2.74866667 28.434,3.094 C28.434,3.35533333 28.5226667,3.57233333 28.7,3.745 C28.8773333,3.91766667 29.1036667,4.05766667 29.379,4.165 C29.6543333,4.27233333 30.0253333,4.396 30.492,4.536 C31.164,4.732 31.7193333,4.93033333 32.158,5.131 C32.5966667,5.33166667 32.9723333,5.63033333 33.285,6.027 C33.5976667,6.42366667 33.754,6.944 33.754,7.588 Z" id="路径"></path>
                            <path d="M38.22,9.03 C38.78,9.03 39.228,8.75466667 39.564,8.204 L41.048,9.072 C40.8146667,9.61333333 40.446,10.024 39.942,10.304 C39.438,10.584 38.864,10.724 38.22,10.724 C37.576,10.724 36.974,10.577 36.414,10.283 C35.854,9.989 35.4013333,9.555 35.056,8.981 C34.7106667,8.407 34.538,7.72333333 34.538,6.93 C34.538,6.12733333 34.7106667,5.439 35.056,4.865 C35.4013333,4.291 35.854,3.857 36.414,3.563 C36.974,3.269 37.576,3.122 38.22,3.122 C38.864,3.122 39.438,3.262 39.942,3.542 C40.446,3.822 40.8146667,4.23266667 41.048,4.774 L39.564,5.642 C39.2373333,5.10066667 38.7893333,4.83 38.22,4.83 C37.716,4.83 37.3123333,5.019 37.009,5.397 C36.7056667,5.775 36.554,6.286 36.554,6.93 C36.554,7.56466667 36.708,8.07333333 37.016,8.456 C37.324,8.83866667 37.7253333,9.03 38.22,9.03 Z" id="路径"></path>
                            <path d="M45.836,3.122 C46.116,3.122 46.3773333,3.164 46.62,3.248 C46.8626667,3.332 47.0493333,3.43933333 47.18,3.57 L46.424,5.068 C46.1813333,4.9 45.906,4.816 45.598,4.816 C45.094,4.816 44.6903333,5.026 44.387,5.446 C44.0836667,5.866 43.932,6.44466667 43.932,7.182 L43.932,10.556 L41.986,10.556 L41.986,3.304 L43.694,3.304 C43.7406667,3.864 43.7826667,4.24666667 43.82,4.452 C44.0346667,4.01333333 44.3146667,3.682 44.66,3.458 C45.0053333,3.234 45.3973333,3.122 45.836,3.122 Z" id="路径"></path>
                            <path d="M48.958,2.38 C48.65,2.38 48.3816667,2.261 48.153,2.023 C47.9243333,1.785 47.81,1.50733333 47.81,1.19 C47.81,0.863333333 47.922,0.583333333 48.146,0.35 C48.37,0.116666667 48.6406667,0 48.958,0 C49.2753333,0 49.5506667,0.119 49.784,0.357 C50.0173333,0.595 50.134,0.872666667 50.134,1.19 C50.134,1.50733333 50.0173333,1.785 49.784,2.023 C49.5506667,2.261 49.2753333,2.38 48.958,2.38 Z M49.952,10.556 L48.006,10.556 L48.006,3.304 L49.952,3.304 L49.952,10.556 Z" id="形状"></path>
                            <path d="M55.902,3.122 C56.49,3.122 57.0336667,3.27133333 57.533,3.57 C58.0323333,3.86866667 58.429,4.30733333 58.723,4.886 C59.017,5.46466667 59.164,6.146 59.164,6.93 C59.164,7.714 59.017,8.393 58.723,8.967 C58.429,9.541 58.0323333,9.97733333 57.533,10.276 C57.0336667,10.5746667 56.49,10.724 55.902,10.724 C55.454,10.724 55.0386667,10.6353333 54.656,10.458 C54.2733333,10.2806667 53.956,10.01 53.704,9.646 L53.704,13.804 L51.758,13.804 L51.758,3.304 L53.466,3.304 L53.508,3.78 C53.5173333,3.87333333 53.5266667,3.97133333 53.536,4.074 C53.5453333,4.17666667 53.5593333,4.284 53.578,4.396 C53.83,3.96666667 54.159,3.647 54.565,3.437 C54.971,3.227 55.4166667,3.122 55.902,3.122 Z M55.454,9.002 C55.958,9.002 56.3663333,8.81766667 56.679,8.449 C56.9916667,8.08033333 57.148,7.574 57.148,6.93 C57.148,6.26733333 56.994,5.74466667 56.686,5.362 C56.378,4.97933333 55.9673333,4.788 55.454,4.788 C54.9686667,4.788 54.5556667,4.96766667 54.215,5.327 C53.8743333,5.68633333 53.704,6.22066667 53.704,6.93 C53.704,7.63 53.872,8.15033333 54.208,8.491 C54.544,8.83166667 54.9593333,9.002 55.454,9.002 Z" id="形状"></path>
                            <path d="M65.618,10.136 C65.142,10.528 64.4793333,10.724 63.63,10.724 C62.846,10.724 62.2136667,10.5163333 61.733,10.101 C61.2523333,9.68566667 61.012,8.94133333 61.012,7.868 L61.012,4.942 L59.724,4.942 L59.724,3.304 L61.012,3.304 L61.012,1.078 L62.958,1.078 L62.958,3.304 L65.142,3.304 L65.142,4.942 L62.958,4.942 L62.958,7.546 C62.958,8.03133333 63.042,8.4 63.21,8.652 C63.378,8.904 63.6486667,9.03 64.022,9.03 C64.3486667,9.03 64.6566667,8.932 64.946,8.736 L65.618,10.136 Z" id="路径"></path>
                            <path d="M67.424,10.752 C67.1066667,10.752 66.836,10.6353333 66.612,10.402 C66.388,10.1686667 66.276,9.88866667 66.276,9.562 C66.276,9.23533333 66.388,8.95533333 66.612,8.722 C66.836,8.48866667 67.1066667,8.372 67.424,8.372 C67.7506667,8.372 68.0283333,8.48866667 68.257,8.722 C68.4856667,8.95533333 68.6,9.23533333 68.6,9.562 C68.6,9.88866667 68.4856667,10.1686667 68.257,10.402 C68.0283333,10.6353333 67.7506667,10.752 67.424,10.752 Z" id="路径"></path>
                            <path d="M73.248,3.122 C74.228,3.122 74.9933333,3.39966667 75.544,3.955 C76.0946667,4.51033333 76.37,5.30133333 76.37,6.328 L76.37,10.556 L74.732,10.556 C74.7226667,10.4813333 74.711,10.3576667 74.697,10.185 C74.683,10.0123333 74.662,9.86066667 74.634,9.73 C74.4193333,10.066 74.1416667,10.3156667 73.801,10.479 C73.4603333,10.6423333 73.0473333,10.724 72.562,10.724 C72.058,10.724 71.5983333,10.6353333 71.183,10.458 C70.7676667,10.2806667 70.4386667,10.0216667 70.196,9.681 C69.9533333,9.34033333 69.832,8.93666667 69.832,8.47 C69.832,7.98466667 69.9696667,7.56233333 70.245,7.203 C70.5203333,6.84366667 70.8913333,6.566 71.358,6.37 C71.8246667,6.174 72.338,6.076 72.898,6.076 C73.402,6.076 73.92,6.16 74.452,6.328 C74.424,5.25466667 73.9666667,4.718 73.08,4.718 C72.3706667,4.718 71.8526667,5.03533333 71.526,5.67 L70.14,4.872 C70.4013333,4.33066667 70.8026667,3.90366667 71.344,3.591 C71.8853333,3.27833333 72.52,3.122 73.248,3.122 Z M74.452,7.616 C73.9853333,7.504 73.5793333,7.448 73.234,7.448 C72.7766667,7.448 72.422,7.52966667 72.17,7.693 C71.918,7.85633333 71.792,8.08733333 71.792,8.386 C71.792,8.65666667 71.8923333,8.86666667 72.093,9.016 C72.2936667,9.16533333 72.5526667,9.24 72.87,9.24 C73.29,9.24 73.6586667,9.121 73.976,8.883 C74.2933333,8.645 74.452,8.316 74.452,7.896 L74.452,7.616 Z" id="形状"></path>
                            <path d="M79.03,2.38 C78.722,2.38 78.4536667,2.261 78.225,2.023 C77.9963333,1.785 77.882,1.50733333 77.882,1.19 C77.882,0.863333333 77.994,0.583333333 78.218,0.35 C78.442,0.116666667 78.7126667,0 79.03,0 C79.3473333,0 79.6226667,0.119 79.856,0.357 C80.0893333,0.595 80.206,0.872666667 80.206,1.19 C80.206,1.50733333 80.0893333,1.785 79.856,2.023 C79.6226667,2.261 79.3473333,2.38 79.03,2.38 Z M80.024,10.556 L78.078,10.556 L78.078,3.304 L80.024,3.304 L80.024,10.556 Z" id="形状"></path>
                        </g>
                    </g>
                </g>
            </g>
        </g>
    </g>
</svg>